# xmcd
# 
# Track frame offsets:
#     182
#     16765
#     33665
#     52907
#     71155
#     87342
#     100040
#     117600
#     132945
#     153532
#     171520
#     190927
# 
# Disc length: 2724
# 
# Revision: 2
# Processed by: cddbd v1.5.2PL0 Copyright (c) Steve Scherf et al.
# Submitted via: BonkEnc v1.0
# 
DISCID=a40aa20c
DTITLE=Daniele Silvestri - Daniele Silvestri
DYEAR=1994
DGENRE=Blues
TTITLE0=Idiota
TTITLE1=Amarsi cantando
TTITLE2=Voglia di gridare
TTITLE3=Dove sei
TTITLE4=Datemi un benzinaio
TTITLE5=L'uomo intero
TTITLE6=Paolo
TTITLE7=Non sono stato io
TTITLE8=Il flamenco della doccia
TTITLE9=Mi fido poco
TTITLE10=Quanto è
TTITLE11=Portami via
EXTD=YEAR: 1994 ID3G: 0
EXTT0=
EXTT1=
EXTT2=
EXTT3=
EXTT4=
EXTT5=
EXTT6=
EXTT7=
EXTT8=
EXTT9=
EXTT10=
EXTT11=
PLAYORDER=
